<mxfile host="app.diagrams.net" modified="2023-06-21T07:18:24.867Z" agent="Mozilla/5.0 (Windows NT 10.0; Win64; x64) AppleWebKit/537.36 (KHTML, like Gecko) Chrome/114.0.0.0 Safari/537.36" etag="D7t4eS1OL9u3gIErqsrP" version="21.5.0" type="device">
  <diagram name="페이지-1" id="lRpbqHWU9JOKajEJ3-3a">
    <mxGraphModel dx="644" dy="848" grid="1" gridSize="10" guides="1" tooltips="1" connect="1" arrows="1" fold="1" page="1" pageScale="1" pageWidth="827" pageHeight="1169" math="0" shadow="0">
      <root>
        <mxCell id="0" />
        <mxCell id="1" parent="0" />
        <mxCell id="T-EQ0B81SwUlxkm2V5t_-67" style="edgeStyle=orthogonalEdgeStyle;rounded=0;orthogonalLoop=1;jettySize=auto;html=1;exitX=0.5;exitY=1;exitDx=0;exitDy=0;entryX=0.5;entryY=0;entryDx=0;entryDy=0;labelBackgroundColor=none;fontColor=default;strokeWidth=2;" parent="1" edge="1">
          <mxGeometry relative="1" as="geometry">
            <mxPoint x="1212" y="271" as="sourcePoint" />
            <mxPoint x="1212" y="321" as="targetPoint" />
          </mxGeometry>
        </mxCell>
        <mxCell id="T-EQ0B81SwUlxkm2V5t_-69" style="edgeStyle=orthogonalEdgeStyle;rounded=0;orthogonalLoop=1;jettySize=auto;html=1;entryX=0.5;entryY=0;entryDx=0;entryDy=0;labelBackgroundColor=none;fontColor=default;strokeWidth=2;" parent="1" edge="1">
          <mxGeometry relative="1" as="geometry">
            <mxPoint x="1212" y="531" as="sourcePoint" />
            <mxPoint x="1212" y="561" as="targetPoint" />
          </mxGeometry>
        </mxCell>
        <mxCell id="T-EQ0B81SwUlxkm2V5t_-78" value="NO" style="text;html=1;align=center;verticalAlign=middle;whiteSpace=wrap;rounded=0;labelBackgroundColor=none;fontSize=15;fillColor=#a20025;fontColor=#ffffff;strokeColor=#6F0000;strokeWidth=2;" parent="1" vertex="1">
          <mxGeometry x="1032" y="381" width="50" height="20" as="geometry" />
        </mxCell>
        <mxCell id="w-uPrE499tJc2kBFcumg-51" value="" style="edgeStyle=orthogonalEdgeStyle;rounded=0;orthogonalLoop=1;jettySize=auto;html=1;" edge="1" parent="1" source="T-EQ0B81SwUlxkm2V5t_-86" target="T-EQ0B81SwUlxkm2V5t_-118">
          <mxGeometry relative="1" as="geometry" />
        </mxCell>
        <mxCell id="T-EQ0B81SwUlxkm2V5t_-86" value="3.랭킹조회" style="rounded=0;whiteSpace=wrap;html=1;labelBackgroundColor=none;strokeWidth=2;fontSize=15;" parent="1" vertex="1">
          <mxGeometry x="861" y="689" width="120" height="60" as="geometry" />
        </mxCell>
        <mxCell id="T-EQ0B81SwUlxkm2V5t_-89" value="&lt;b&gt;5.종료&lt;/b&gt;" style="ellipse;whiteSpace=wrap;html=1;labelBackgroundColor=none;strokeWidth=2;fontSize=20;fillColor=#FF0000;fontColor=#ffffff;strokeColor=#6F0000;" parent="1" vertex="1">
          <mxGeometry x="1387" y="507" width="100" height="70" as="geometry" />
        </mxCell>
        <mxCell id="w-uPrE499tJc2kBFcumg-33" value="" style="edgeStyle=orthogonalEdgeStyle;rounded=0;orthogonalLoop=1;jettySize=auto;html=1;strokeWidth=2;" edge="1" parent="1" source="T-EQ0B81SwUlxkm2V5t_-103" target="T-EQ0B81SwUlxkm2V5t_-198">
          <mxGeometry relative="1" as="geometry" />
        </mxCell>
        <mxCell id="T-EQ0B81SwUlxkm2V5t_-103" value="정답" style="rounded=0;whiteSpace=wrap;html=1;fontFamily=Helvetica;fontSize=13;labelBackgroundColor=none;strokeWidth=2;" parent="1" vertex="1">
          <mxGeometry x="1152" y="1160" width="120" height="60" as="geometry" />
        </mxCell>
        <mxCell id="T-EQ0B81SwUlxkm2V5t_-118" value="위에서 적당한&amp;nbsp;&lt;br style=&quot;font-size: 13px;&quot;&gt;인원수 랭킹 출력" style="shape=document;whiteSpace=wrap;html=1;boundedLbl=1;fontFamily=Helvetica;fontSize=13;labelBackgroundColor=none;strokeWidth=2;" parent="1" vertex="1">
          <mxGeometry x="861" y="779" width="120" height="80" as="geometry" />
        </mxCell>
        <mxCell id="w-uPrE499tJc2kBFcumg-62" value="" style="edgeStyle=orthogonalEdgeStyle;rounded=0;orthogonalLoop=1;jettySize=auto;html=1;" edge="1" parent="1" source="T-EQ0B81SwUlxkm2V5t_-131" target="T-EQ0B81SwUlxkm2V5t_-226">
          <mxGeometry relative="1" as="geometry" />
        </mxCell>
        <mxCell id="T-EQ0B81SwUlxkm2V5t_-131" value="2차 비번 입력" style="rhombus;whiteSpace=wrap;html=1;fontFamily=Helvetica;fontSize=13;labelBackgroundColor=none;strokeWidth=2;" parent="1" vertex="1">
          <mxGeometry x="1458" y="680" width="130" height="80" as="geometry" />
        </mxCell>
        <mxCell id="T-EQ0B81SwUlxkm2V5t_-158" style="edgeStyle=orthogonalEdgeStyle;rounded=0;orthogonalLoop=1;jettySize=auto;html=1;exitX=1;exitY=0.5;exitDx=0;exitDy=0;entryX=0;entryY=0.5;entryDx=0;entryDy=0;labelBackgroundColor=none;fontColor=default;strokeWidth=2;" parent="1" edge="1">
          <mxGeometry relative="1" as="geometry">
            <mxPoint x="1290" y="245.5" as="sourcePoint" />
            <mxPoint x="1372" y="245.5" as="targetPoint" />
          </mxGeometry>
        </mxCell>
        <mxCell id="T-EQ0B81SwUlxkm2V5t_-159" style="edgeStyle=orthogonalEdgeStyle;rounded=0;orthogonalLoop=1;jettySize=auto;html=1;exitX=0.5;exitY=1;exitDx=0;exitDy=0;entryX=0.5;entryY=0;entryDx=0;entryDy=0;labelBackgroundColor=none;fontColor=default;strokeWidth=2;" parent="1" target="T-EQ0B81SwUlxkm2V5t_-162" edge="1">
          <mxGeometry relative="1" as="geometry">
            <mxPoint x="1212" y="271" as="sourcePoint" />
          </mxGeometry>
        </mxCell>
        <mxCell id="w-uPrE499tJc2kBFcumg-70" style="edgeStyle=orthogonalEdgeStyle;rounded=0;orthogonalLoop=1;jettySize=auto;html=1;exitX=0.5;exitY=1;exitDx=0;exitDy=0;entryX=0.5;entryY=0;entryDx=0;entryDy=0;" edge="1" parent="1" source="T-EQ0B81SwUlxkm2V5t_-162" target="T-EQ0B81SwUlxkm2V5t_-173">
          <mxGeometry relative="1" as="geometry" />
        </mxCell>
        <mxCell id="T-EQ0B81SwUlxkm2V5t_-162" value="LOGIN" style="rhombus;whiteSpace=wrap;html=1;shadow=0;fontFamily=Georgia;fontSize=15;align=center;strokeWidth=2;spacing=6;spacingTop=-4;labelBackgroundColor=none;" parent="1" vertex="1">
          <mxGeometry x="1162" y="371" width="100" height="80" as="geometry" />
        </mxCell>
        <mxCell id="T-EQ0B81SwUlxkm2V5t_-166" value="회원가입" style="rounded=0;whiteSpace=wrap;html=1;labelBackgroundColor=none;strokeWidth=2;fontSize=15;fontFamily=Georgia;" parent="1" vertex="1">
          <mxGeometry x="1372" y="216" width="120" height="60" as="geometry" />
        </mxCell>
        <mxCell id="w-uPrE499tJc2kBFcumg-71" value="" style="edgeStyle=orthogonalEdgeStyle;rounded=0;orthogonalLoop=1;jettySize=auto;html=1;exitX=0.493;exitY=0.866;exitDx=0;exitDy=0;exitPerimeter=0;strokeWidth=2;" edge="1" parent="1" source="T-EQ0B81SwUlxkm2V5t_-173" target="T-EQ0B81SwUlxkm2V5t_-177">
          <mxGeometry relative="1" as="geometry" />
        </mxCell>
        <mxCell id="T-EQ0B81SwUlxkm2V5t_-173" value="&lt;font style=&quot;font-size: 13px;&quot;&gt;메뉴 출력&lt;br&gt;(1.게임시작 2.정보조회 3.랭킹 조회 4.상점 5.종료)&lt;/font&gt;" style="shape=document;whiteSpace=wrap;html=1;boundedLbl=1;labelBackgroundColor=none;strokeWidth=2;" parent="1" vertex="1">
          <mxGeometry x="1098" y="501" width="230" height="120" as="geometry" />
        </mxCell>
        <mxCell id="w-uPrE499tJc2kBFcumg-35" value="" style="edgeStyle=orthogonalEdgeStyle;rounded=0;orthogonalLoop=1;jettySize=auto;html=1;strokeWidth=2;" edge="1" parent="1" source="T-EQ0B81SwUlxkm2V5t_-175" target="T-EQ0B81SwUlxkm2V5t_-215">
          <mxGeometry relative="1" as="geometry" />
        </mxCell>
        <mxCell id="T-EQ0B81SwUlxkm2V5t_-175" value="2.정보조회" style="rounded=0;whiteSpace=wrap;html=1;labelBackgroundColor=none;strokeWidth=2;fontSize=15;" parent="1" vertex="1">
          <mxGeometry x="1002" y="687" width="120" height="60" as="geometry" />
        </mxCell>
        <mxCell id="w-uPrE499tJc2kBFcumg-19" style="edgeStyle=orthogonalEdgeStyle;rounded=0;orthogonalLoop=1;jettySize=auto;html=1;exitX=0.5;exitY=1;exitDx=0;exitDy=0;entryX=0.5;entryY=0;entryDx=0;entryDy=0;strokeWidth=2;" edge="1" parent="1" source="T-EQ0B81SwUlxkm2V5t_-177" target="2fotg_6lnnJbR6tX6nRT-4">
          <mxGeometry relative="1" as="geometry" />
        </mxCell>
        <mxCell id="T-EQ0B81SwUlxkm2V5t_-177" value="1.게임시작" style="rounded=0;whiteSpace=wrap;html=1;labelBackgroundColor=none;strokeWidth=2;fontSize=15;" parent="1" vertex="1">
          <mxGeometry x="1152" y="688" width="120" height="60" as="geometry" />
        </mxCell>
        <mxCell id="w-uPrE499tJc2kBFcumg-61" value="" style="edgeStyle=orthogonalEdgeStyle;rounded=0;orthogonalLoop=1;jettySize=auto;html=1;" edge="1" parent="1" source="T-EQ0B81SwUlxkm2V5t_-179" target="T-EQ0B81SwUlxkm2V5t_-131">
          <mxGeometry relative="1" as="geometry" />
        </mxCell>
        <mxCell id="T-EQ0B81SwUlxkm2V5t_-179" value="4.상점" style="rounded=0;whiteSpace=wrap;html=1;labelBackgroundColor=none;strokeWidth=2;fontSize=15;" parent="1" vertex="1">
          <mxGeometry x="1302" y="690" width="120" height="60" as="geometry" />
        </mxCell>
        <mxCell id="w-uPrE499tJc2kBFcumg-27" value="" style="edgeStyle=orthogonalEdgeStyle;rounded=0;orthogonalLoop=1;jettySize=auto;html=1;strokeWidth=2;" edge="1" parent="1" source="T-EQ0B81SwUlxkm2V5t_-186" target="T-EQ0B81SwUlxkm2V5t_-103">
          <mxGeometry relative="1" as="geometry" />
        </mxCell>
        <mxCell id="T-EQ0B81SwUlxkm2V5t_-186" value="문제제시 후 &lt;br&gt;정답 입력" style="rhombus;whiteSpace=wrap;html=1;fontFamily=Helvetica;fontSize=13;labelBackgroundColor=none;strokeWidth=2;" parent="1" vertex="1">
          <mxGeometry x="1147" y="999" width="130" height="120" as="geometry" />
        </mxCell>
        <mxCell id="T-EQ0B81SwUlxkm2V5t_-187" value="오답" style="rounded=0;whiteSpace=wrap;html=1;fontFamily=Helvetica;fontSize=13;labelBackgroundColor=none;strokeWidth=2;" parent="1" vertex="1">
          <mxGeometry x="1322" y="1102" width="120" height="60" as="geometry" />
        </mxCell>
        <mxCell id="T-EQ0B81SwUlxkm2V5t_-193" value="&lt;font color=&quot;#ff0000&quot;&gt;문제기회DOWN&lt;/font&gt;" style="text;html=1;strokeColor=none;fillColor=none;align=center;verticalAlign=middle;whiteSpace=wrap;rounded=0;fontSize=11;fontFamily=Helvetica;labelBackgroundColor=none;strokeWidth=2;" parent="1" vertex="1">
          <mxGeometry x="1382" y="1061" width="70" height="30" as="geometry" />
        </mxCell>
        <mxCell id="w-uPrE499tJc2kBFcumg-52" value="" style="edgeStyle=orthogonalEdgeStyle;rounded=0;orthogonalLoop=1;jettySize=auto;html=1;" edge="1" parent="1" source="T-EQ0B81SwUlxkm2V5t_-198" target="2fotg_6lnnJbR6tX6nRT-196">
          <mxGeometry relative="1" as="geometry" />
        </mxCell>
        <mxCell id="T-EQ0B81SwUlxkm2V5t_-198" value="POINT획득" style="rounded=0;whiteSpace=wrap;html=1;fontFamily=Helvetica;fontSize=13;labelBackgroundColor=none;strokeWidth=2;" parent="1" vertex="1">
          <mxGeometry x="1152" y="1260" width="120" height="60" as="geometry" />
        </mxCell>
        <mxCell id="T-EQ0B81SwUlxkm2V5t_-215" value="2차 비번 입력" style="rhombus;whiteSpace=wrap;html=1;fontFamily=Helvetica;fontSize=13;labelBackgroundColor=none;strokeWidth=2;" parent="1" vertex="1">
          <mxGeometry x="997" y="771" width="130" height="80" as="geometry" />
        </mxCell>
        <mxCell id="T-EQ0B81SwUlxkm2V5t_-216" value="비밀번호 찾기" style="rounded=0;whiteSpace=wrap;html=1;fontFamily=Georgia;fontSize=15;labelBackgroundColor=none;strokeWidth=2;" parent="1" vertex="1">
          <mxGeometry x="1367" y="331" width="120" height="60" as="geometry" />
        </mxCell>
        <mxCell id="T-EQ0B81SwUlxkm2V5t_-217" value="" style="endArrow=classic;html=1;rounded=0;labelBackgroundColor=none;fontFamily=Helvetica;fontSize=11;fontColor=default;shape=connector;entryX=0;entryY=0.5;entryDx=0;entryDy=0;strokeWidth=2;exitX=1;exitY=0.5;exitDx=0;exitDy=0;" parent="1" source="w-uPrE499tJc2kBFcumg-4" target="T-EQ0B81SwUlxkm2V5t_-216" edge="1">
          <mxGeometry width="50" height="50" relative="1" as="geometry">
            <mxPoint x="1247.6643356643358" y="244.7762237762238" as="sourcePoint" />
            <mxPoint x="1298" y="311" as="targetPoint" />
            <Array as="points">
              <mxPoint x="1302" y="361" />
            </Array>
          </mxGeometry>
        </mxCell>
        <mxCell id="T-EQ0B81SwUlxkm2V5t_-218" value="" style="endArrow=classic;html=1;rounded=0;labelBackgroundColor=none;fontFamily=Helvetica;fontSize=11;fontColor=default;shape=connector;strokeWidth=2;entryX=0;entryY=0.5;entryDx=0;entryDy=0;" parent="1" edge="1" target="T-EQ0B81SwUlxkm2V5t_-219">
          <mxGeometry width="50" height="50" relative="1" as="geometry">
            <mxPoint x="1492" y="361" as="sourcePoint" />
            <mxPoint x="1542" y="361" as="targetPoint" />
          </mxGeometry>
        </mxCell>
        <mxCell id="T-EQ0B81SwUlxkm2V5t_-219" value="본인인증시 초기화" style="rounded=0;whiteSpace=wrap;html=1;fontFamily=Georgia;fontSize=15;labelBackgroundColor=none;strokeWidth=2;" parent="1" vertex="1">
          <mxGeometry x="1547" y="331" width="120" height="60" as="geometry" />
        </mxCell>
        <mxCell id="T-EQ0B81SwUlxkm2V5t_-220" value="" style="endArrow=none;html=1;rounded=0;labelBackgroundColor=none;fontFamily=Helvetica;fontSize=11;fontColor=default;shape=connector;strokeWidth=1;exitX=0.342;exitY=0;exitDx=0;exitDy=0;exitPerimeter=0;" parent="1" edge="1">
          <mxGeometry width="50" height="50" relative="1" as="geometry">
            <mxPoint x="1601.04" y="331" as="sourcePoint" />
            <mxPoint x="1601" y="141" as="targetPoint" />
            <Array as="points" />
          </mxGeometry>
        </mxCell>
        <mxCell id="T-EQ0B81SwUlxkm2V5t_-224" value="개인 정보 출력" style="shape=document;whiteSpace=wrap;html=1;boundedLbl=1;fontFamily=Helvetica;fontSize=13;labelBackgroundColor=none;strokeWidth=2;" parent="1" vertex="1">
          <mxGeometry x="1002" y="941" width="120" height="80" as="geometry" />
        </mxCell>
        <mxCell id="T-EQ0B81SwUlxkm2V5t_-225" value="" style="endArrow=classic;html=1;rounded=0;labelBackgroundColor=none;fontFamily=Helvetica;fontSize=11;fontColor=default;shape=connector;exitX=0.5;exitY=1;exitDx=0;exitDy=0;entryX=0.5;entryY=0;entryDx=0;entryDy=0;strokeWidth=2;" parent="1" source="T-EQ0B81SwUlxkm2V5t_-215" target="T-EQ0B81SwUlxkm2V5t_-224" edge="1">
          <mxGeometry width="50" height="50" relative="1" as="geometry">
            <mxPoint x="1100" y="1610" as="sourcePoint" />
            <mxPoint x="1150" y="1560" as="targetPoint" />
          </mxGeometry>
        </mxCell>
        <mxCell id="w-uPrE499tJc2kBFcumg-63" value="" style="edgeStyle=orthogonalEdgeStyle;rounded=0;orthogonalLoop=1;jettySize=auto;html=1;" edge="1" parent="1" source="T-EQ0B81SwUlxkm2V5t_-226" target="T-EQ0B81SwUlxkm2V5t_-232">
          <mxGeometry relative="1" as="geometry" />
        </mxCell>
        <mxCell id="T-EQ0B81SwUlxkm2V5t_-226" value="아이템 구매&lt;br style=&quot;font-size: 13px;&quot;&gt;" style="rounded=0;whiteSpace=wrap;html=1;fontFamily=Helvetica;fontSize=13;labelBackgroundColor=none;strokeWidth=2;" parent="1" vertex="1">
          <mxGeometry x="1462" y="789" width="120" height="60" as="geometry" />
        </mxCell>
        <mxCell id="T-EQ0B81SwUlxkm2V5t_-232" value="계속 사용할지&amp;nbsp;&lt;br style=&quot;font-size: 13px;&quot;&gt;판단" style="rhombus;whiteSpace=wrap;html=1;strokeWidth=2;fontSize=13;" parent="1" vertex="1">
          <mxGeometry x="1467" y="879" width="110" height="80" as="geometry" />
        </mxCell>
        <mxCell id="w-uPrE499tJc2kBFcumg-20" style="edgeStyle=orthogonalEdgeStyle;rounded=0;orthogonalLoop=1;jettySize=auto;html=1;exitX=0.5;exitY=1;exitDx=0;exitDy=0;entryX=0.5;entryY=0;entryDx=0;entryDy=0;strokeWidth=2;" edge="1" parent="1" source="2fotg_6lnnJbR6tX6nRT-4" target="2fotg_6lnnJbR6tX6nRT-8">
          <mxGeometry relative="1" as="geometry" />
        </mxCell>
        <mxCell id="2fotg_6lnnJbR6tX6nRT-4" value="&quot;장르선택&quot;&lt;br style=&quot;font-size: 13px;&quot;&gt;1.영화 &lt;br style=&quot;font-size: 13px;&quot;&gt;&amp;nbsp; &amp;nbsp;2.드라마 &lt;br style=&quot;font-size: 13px;&quot;&gt;3.게임&amp;nbsp;&lt;br style=&quot;font-size: 13px;&quot;&gt;" style="rounded=0;whiteSpace=wrap;html=1;strokeWidth=2;fontSize=13;" parent="1" vertex="1">
          <mxGeometry x="1147" y="779" width="130" height="80" as="geometry" />
        </mxCell>
        <mxCell id="w-uPrE499tJc2kBFcumg-26" value="" style="edgeStyle=orthogonalEdgeStyle;rounded=0;orthogonalLoop=1;jettySize=auto;html=1;strokeWidth=2;" edge="1" parent="1" source="2fotg_6lnnJbR6tX6nRT-8" target="T-EQ0B81SwUlxkm2V5t_-186">
          <mxGeometry relative="1" as="geometry" />
        </mxCell>
        <mxCell id="2fotg_6lnnJbR6tX6nRT-8" value="힌트사용 유무" style="rounded=0;whiteSpace=wrap;html=1;strokeWidth=2;fontSize=13;" parent="1" vertex="1">
          <mxGeometry x="1152" y="899" width="120" height="60" as="geometry" />
        </mxCell>
        <mxCell id="2fotg_6lnnJbR6tX6nRT-196" value="&quot;계속 하시겠습니까?&quot;&lt;br style=&quot;font-size: 13px;&quot;&gt;(YES or No)" style="rounded=0;whiteSpace=wrap;html=1;strokeWidth=2;fontSize=13;" parent="1" vertex="1">
          <mxGeometry x="1113" y="1351" width="200" height="80" as="geometry" />
        </mxCell>
        <mxCell id="w-uPrE499tJc2kBFcumg-2" value="" style="endArrow=classic;html=1;rounded=0;labelBackgroundColor=none;fontFamily=Helvetica;fontSize=11;fontColor=default;shape=connector;strokeWidth=1;" edge="1" parent="1">
          <mxGeometry width="50" height="50" relative="1" as="geometry">
            <mxPoint x="1603" y="141" as="sourcePoint" />
            <mxPoint x="1212" y="141" as="targetPoint" />
          </mxGeometry>
        </mxCell>
        <mxCell id="w-uPrE499tJc2kBFcumg-4" value="[1]로그인&lt;br&gt;&amp;nbsp;[2] 회원가입&lt;br style=&quot;font-size: 15px;&quot;&gt;&amp;nbsp; [3]비밀번호 찾기&lt;br&gt;[4]종료" style="rhombus;whiteSpace=wrap;html=1;shadow=0;fontFamily=Georgia;fontSize=15;align=center;strokeWidth=2;spacing=6;spacingTop=-4;labelBackgroundColor=none;" vertex="1" parent="1">
          <mxGeometry x="1124.5" y="171" width="175" height="150" as="geometry" />
        </mxCell>
        <mxCell id="w-uPrE499tJc2kBFcumg-7" value="&lt;font style=&quot;font-size: 25px;&quot;&gt;START&lt;/font&gt;" style="rounded=1;whiteSpace=wrap;html=1;labelBackgroundColor=none;strokeWidth=2;fontSize=25;fontFamily=Georgia;" vertex="1" parent="1">
          <mxGeometry x="1130" y="60" width="160" height="59" as="geometry" />
        </mxCell>
        <mxCell id="w-uPrE499tJc2kBFcumg-10" value="" style="endArrow=none;html=1;rounded=0;exitX=0.5;exitY=0;exitDx=0;exitDy=0;strokeWidth=2;" edge="1" parent="1" source="T-EQ0B81SwUlxkm2V5t_-166">
          <mxGeometry width="50" height="50" relative="1" as="geometry">
            <mxPoint x="1392" y="181" as="sourcePoint" />
            <mxPoint x="1432" y="141" as="targetPoint" />
          </mxGeometry>
        </mxCell>
        <mxCell id="w-uPrE499tJc2kBFcumg-12" value="" style="endArrow=classic;html=1;rounded=0;exitX=0;exitY=0.5;exitDx=0;exitDy=0;strokeWidth=2;" edge="1" parent="1" source="T-EQ0B81SwUlxkm2V5t_-162">
          <mxGeometry width="50" height="50" relative="1" as="geometry">
            <mxPoint x="1162" y="416" as="sourcePoint" />
            <mxPoint x="1122" y="246" as="targetPoint" />
            <Array as="points">
              <mxPoint x="1022" y="411" />
              <mxPoint x="1022" y="246" />
            </Array>
          </mxGeometry>
        </mxCell>
        <mxCell id="w-uPrE499tJc2kBFcumg-13" value="&lt;font style=&quot;font-size: 15px;&quot;&gt;&amp;nbsp;YES&lt;/font&gt;" style="text;html=1;strokeColor=#001DBC;fillColor=#0050ef;align=center;verticalAlign=middle;whiteSpace=wrap;rounded=0;fontSize=11;fontFamily=Helvetica;labelBackgroundColor=none;fontColor=#ffffff;strokeWidth=2;" vertex="1" parent="1">
          <mxGeometry x="1147" y="461" width="48" height="20" as="geometry" />
        </mxCell>
        <mxCell id="w-uPrE499tJc2kBFcumg-15" value="" style="endArrow=classic;html=1;rounded=0;strokeWidth=2;" edge="1" parent="1">
          <mxGeometry width="50" height="50" relative="1" as="geometry">
            <mxPoint x="1211" y="632" as="sourcePoint" />
            <mxPoint x="921" y="691" as="targetPoint" />
            <Array as="points">
              <mxPoint x="921" y="632" />
            </Array>
          </mxGeometry>
        </mxCell>
        <mxCell id="w-uPrE499tJc2kBFcumg-16" value="" style="endArrow=classic;html=1;rounded=0;strokeWidth=2;" edge="1" parent="1">
          <mxGeometry width="50" height="50" relative="1" as="geometry">
            <mxPoint x="1062" y="631" as="sourcePoint" />
            <mxPoint x="1062" y="688" as="targetPoint" />
          </mxGeometry>
        </mxCell>
        <mxCell id="w-uPrE499tJc2kBFcumg-18" value="" style="endArrow=classic;html=1;rounded=0;strokeWidth=2;" edge="1" parent="1">
          <mxGeometry width="50" height="50" relative="1" as="geometry">
            <mxPoint x="1212" y="631" as="sourcePoint" />
            <mxPoint x="1362" y="691" as="targetPoint" />
            <Array as="points">
              <mxPoint x="1362" y="631" />
            </Array>
          </mxGeometry>
        </mxCell>
        <mxCell id="w-uPrE499tJc2kBFcumg-22" value="&lt;font style=&quot;font-size: 15px;&quot;&gt;&amp;nbsp;YES&lt;/font&gt;" style="text;html=1;strokeColor=#001DBC;fillColor=#0050ef;align=center;verticalAlign=middle;whiteSpace=wrap;rounded=0;fontSize=11;fontFamily=Helvetica;labelBackgroundColor=none;fontColor=#ffffff;strokeWidth=2;" vertex="1" parent="1">
          <mxGeometry x="1163" y="1124.5" width="40" height="15" as="geometry" />
        </mxCell>
        <mxCell id="w-uPrE499tJc2kBFcumg-23" value="NO" style="text;html=1;align=center;verticalAlign=middle;whiteSpace=wrap;rounded=0;labelBackgroundColor=none;fontSize=15;fillColor=#a20025;fontColor=#ffffff;strokeColor=#6F0000;strokeWidth=2;" vertex="1" parent="1">
          <mxGeometry x="1272" y="1111" width="41" height="20" as="geometry" />
        </mxCell>
        <mxCell id="w-uPrE499tJc2kBFcumg-29" value="" style="endArrow=classic;html=1;rounded=0;entryX=0;entryY=0.5;entryDx=0;entryDy=0;strokeWidth=2;" edge="1" parent="1" target="T-EQ0B81SwUlxkm2V5t_-187">
          <mxGeometry width="50" height="50" relative="1" as="geometry">
            <mxPoint x="1212" y="1133" as="sourcePoint" />
            <mxPoint x="1142" y="1140" as="targetPoint" />
          </mxGeometry>
        </mxCell>
        <mxCell id="w-uPrE499tJc2kBFcumg-38" value="" style="endArrow=classic;html=1;rounded=0;exitX=0.45;exitY=0.036;exitDx=0;exitDy=0;exitPerimeter=0;strokeWidth=2;" edge="1" parent="1" source="T-EQ0B81SwUlxkm2V5t_-187">
          <mxGeometry width="50" height="50" relative="1" as="geometry">
            <mxPoint x="1337" y="1041" as="sourcePoint" />
            <mxPoint x="1212" y="971" as="targetPoint" />
            <Array as="points">
              <mxPoint x="1376" y="971" />
            </Array>
          </mxGeometry>
        </mxCell>
        <mxCell id="w-uPrE499tJc2kBFcumg-50" value="문제점수&lt;br&gt;DOWN" style="text;html=1;strokeColor=none;fillColor=none;align=center;verticalAlign=middle;whiteSpace=wrap;rounded=0;fontSize=11;fontFamily=Helvetica;labelBackgroundColor=none;strokeWidth=2;fontColor=#FF0000;" vertex="1" parent="1">
          <mxGeometry x="1382" y="1021" width="70" height="30" as="geometry" />
        </mxCell>
        <mxCell id="w-uPrE499tJc2kBFcumg-54" value="" style="endArrow=classic;html=1;rounded=0;exitX=0;exitY=0.5;exitDx=0;exitDy=0;" edge="1" parent="1">
          <mxGeometry width="50" height="50" relative="1" as="geometry">
            <mxPoint x="1169" y="1370" as="sourcePoint" />
            <mxPoint x="1148" y="540" as="targetPoint" />
            <Array as="points">
              <mxPoint x="858" y="1370" />
              <mxPoint x="858" y="540" />
            </Array>
          </mxGeometry>
        </mxCell>
        <mxCell id="w-uPrE499tJc2kBFcumg-55" value="" style="endArrow=classic;html=1;rounded=0;" edge="1" parent="1">
          <mxGeometry width="50" height="50" relative="1" as="geometry">
            <mxPoint x="1112" y="1371" as="sourcePoint" />
            <mxPoint x="1212" y="881" as="targetPoint" />
            <Array as="points">
              <mxPoint x="882" y="1371" />
              <mxPoint x="882" y="881" />
            </Array>
          </mxGeometry>
        </mxCell>
        <mxCell id="w-uPrE499tJc2kBFcumg-56" value="&lt;font style=&quot;font-size: 15px;&quot;&gt;&amp;nbsp;YES&lt;/font&gt;" style="text;html=1;strokeColor=#001DBC;fillColor=#0050ef;align=center;verticalAlign=middle;whiteSpace=wrap;rounded=0;fontSize=11;fontFamily=Helvetica;labelBackgroundColor=none;fontColor=#ffffff;strokeWidth=2;" vertex="1" parent="1">
          <mxGeometry x="1042" y="1351" width="40" height="15" as="geometry" />
        </mxCell>
        <mxCell id="w-uPrE499tJc2kBFcumg-57" value="NO" style="text;html=1;align=center;verticalAlign=middle;whiteSpace=wrap;rounded=0;labelBackgroundColor=none;fontSize=15;fillColor=#a20025;fontColor=#ffffff;strokeColor=#6F0000;strokeWidth=2;" vertex="1" parent="1">
          <mxGeometry x="1044" y="1401" width="41" height="20" as="geometry" />
        </mxCell>
        <mxCell id="w-uPrE499tJc2kBFcumg-59" value="" style="endArrow=none;html=1;rounded=0;" edge="1" parent="1">
          <mxGeometry width="50" height="50" relative="1" as="geometry">
            <mxPoint x="858" y="950" as="sourcePoint" />
            <mxPoint x="1058" y="950" as="targetPoint" />
          </mxGeometry>
        </mxCell>
        <mxCell id="w-uPrE499tJc2kBFcumg-60" value="" style="endArrow=none;html=1;rounded=0;entryX=-0.017;entryY=0.4;entryDx=0;entryDy=0;entryPerimeter=0;" edge="1" parent="1" target="T-EQ0B81SwUlxkm2V5t_-118">
          <mxGeometry width="50" height="50" relative="1" as="geometry">
            <mxPoint x="858" y="790" as="sourcePoint" />
            <mxPoint x="908" y="750" as="targetPoint" />
          </mxGeometry>
        </mxCell>
        <mxCell id="w-uPrE499tJc2kBFcumg-64" value="" style="endArrow=classic;html=1;rounded=0;entryX=1;entryY=0.75;entryDx=0;entryDy=0;" edge="1" parent="1" target="T-EQ0B81SwUlxkm2V5t_-173">
          <mxGeometry width="50" height="50" relative="1" as="geometry">
            <mxPoint x="1577" y="921" as="sourcePoint" />
            <mxPoint x="1632" y="581" as="targetPoint" />
            <Array as="points">
              <mxPoint x="1622" y="921" />
              <mxPoint x="1622" y="591" />
            </Array>
          </mxGeometry>
        </mxCell>
        <mxCell id="w-uPrE499tJc2kBFcumg-72" value="&lt;b&gt;4.종료&lt;/b&gt;" style="ellipse;whiteSpace=wrap;html=1;labelBackgroundColor=none;strokeWidth=2;fontSize=20;fillColor=#FF0000;fontColor=#ffffff;strokeColor=#6F0000;" vertex="1" parent="1">
          <mxGeometry x="1377" y="401" width="100" height="70" as="geometry" />
        </mxCell>
        <mxCell id="w-uPrE499tJc2kBFcumg-74" value="" style="endArrow=classic;html=1;rounded=0;entryX=0;entryY=0.5;entryDx=0;entryDy=0;strokeWidth=2;" edge="1" parent="1">
          <mxGeometry width="50" height="50" relative="1" as="geometry">
            <mxPoint x="1301.5" y="361" as="sourcePoint" />
            <mxPoint x="1379" y="435.9999999999998" as="targetPoint" />
            <Array as="points">
              <mxPoint x="1302" y="436" />
            </Array>
          </mxGeometry>
        </mxCell>
        <mxCell id="w-uPrE499tJc2kBFcumg-77" value="" style="endArrow=classic;html=1;rounded=0;entryX=0;entryY=0.5;entryDx=0;entryDy=0;" edge="1" parent="1" target="T-EQ0B81SwUlxkm2V5t_-89">
          <mxGeometry width="50" height="50" relative="1" as="geometry">
            <mxPoint x="1328" y="541" as="sourcePoint" />
            <mxPoint x="1378" y="491" as="targetPoint" />
          </mxGeometry>
        </mxCell>
        <mxCell id="w-uPrE499tJc2kBFcumg-82" value="" style="endArrow=classic;html=1;rounded=0;" edge="1" parent="1">
          <mxGeometry width="50" height="50" relative="1" as="geometry">
            <mxPoint x="1033" y="630" as="sourcePoint" />
            <mxPoint x="1083" y="580" as="targetPoint" />
          </mxGeometry>
        </mxCell>
      </root>
    </mxGraphModel>
  </diagram>
</mxfile>
